<svg xmlns="http://www.w3.org/2000/svg" viewBox="0 0 31 30">
  <g id="Layer_2" transform="translate(0.04)">
    <g id="search">
      <rect id="Rectangle_5" width="31" height="30" transform="translate(-0.04)" fill="#bccdd9" opacity="0"/>
      <path id="Path_16" d="M26.494,23.634l-4.51-4.294a9.747,9.747,0,0,0,2.242-6.207A10.382,10.382,0,0,0,13.613,3,10.382,10.382,0,0,0,3,13.133,10.382,10.382,0,0,0,13.613,23.267a10.828,10.828,0,0,0,6.5-2.141l4.5,4.307a1.371,1.371,0,0,0,1.884,0,1.227,1.227,0,0,0,0-1.8ZM5.653,13.133a7.786,7.786,0,0,1,7.96-7.6,7.786,7.786,0,0,1,7.96,7.6,7.786,7.786,0,0,1-7.96,7.6,7.786,7.786,0,0,1-7.96-7.6Z" transform="translate(0.98 0.8)" fill="#bccdd9"/>
    </g>
  </g>
</svg>
